<?xml version="1.0" standalone="no"?>
<!DOCTYPE svg PUBLIC "-//W3C//DTD SVG 20010904//EN"
 "http://www.w3.org/TR/2001/REC-SVG-20010904/DTD/svg10.dtd">
<svg version="1.0" xmlns="http://www.w3.org/2000/svg"
 width="700.000000pt" height="700.000000pt" viewBox="0 0 700.000000 700.000000"
 preserveAspectRatio="xMidYMid meet">
<metadata>
Created by potrace 1.14, written by Peter Selinger 2001-2017
</metadata>
<g transform="translate(0.000000,700.000000) scale(0.100000,-0.100000)"
fill="#000000" stroke="none">
<path d="M1500 5934 c-108 -29 -197 -101 -224 -182 -14 -41 -16 -277 -16
-2252 0 -2447 -5 -2261 66 -2334 46 -48 107 -82 179 -100 50 -14 146 -16 625
-16 358 0 579 4 602 10 105 30 194 160 205 300 12 161 -52 304 -162 363 -38
21 -53 22 -392 25 l-353 3 0 1749 0 1749 353 3 c339 3 354 4 392 25 110 59
174 202 162 363 -11 140 -100 270 -205 300 -24 6 -243 10 -607 9 -469 0 -580
-3 -625 -15z m1230 -149 c47 -42 65 -94 65 -185 0 -94 -21 -150 -71 -189 -26
-20 -36 -21 -407 -21 -377 0 -381 0 -404 -22 l-23 -21 0 -1846 0 -1845 22 -23
21 -23 382 0 c373 0 383 -1 409 -21 50 -39 71 -95 71 -189 0 -91 -18 -143 -65
-185 -22 -20 -36 -20 -609 -20 l-586 0 -48 24 c-28 13 -57 37 -68 55 -18 30
-19 88 -19 2224 0 2395 -4 2227 57 2267 65 43 82 44 679 42 556 -2 573 -3 594
-22z"/>
<path d="M1622 5378 c-18 -18 -15 -103 4 -119 27 -22 49 1 52 55 4 64 -24 96
-56 64z"/>
<path d="M1621 5096 c-8 -9 -11 -62 -9 -166 3 -130 6 -154 20 -163 12 -8 21
-7 32 2 13 11 16 39 16 165 0 151 -5 176 -36 176 -6 0 -17 -6 -23 -14z"/>
<path d="M1621 4606 c-8 -10 -10 -408 -9 -1496 3 -1371 4 -1484 20 -1493 12
-8 21 -7 32 2 14 12 16 155 16 1495 0 1139 -3 1485 -12 1494 -16 16 -33 15
-47 -2z"/>
<path d="M4256 5935 c-64 -22 -108 -66 -149 -146 -31 -60 -39 -89 -44 -149
-12 -162 51 -303 162 -363 38 -21 53 -22 393 -25 l352 -3 0 -1749 0 -1749
-352 -3 c-340 -3 -355 -4 -393 -25 -111 -60 -174 -201 -162 -363 11 -140 100
-270 205 -300 23 -6 244 -10 602 -10 625 0 635 1 738 63 61 36 96 78 117 138
22 63 22 4435 0 4498 -31 88 -114 156 -230 186 -83 21 -1178 22 -1239 0z
m1257 -154 c28 -13 57 -37 68 -55 18 -30 19 -88 19 -2226 0 -2138 -1 -2196
-19 -2226 -11 -18 -40 -42 -68 -55 l-48 -24 -586 0 c-573 0 -587 0 -609 20
-47 42 -65 94 -65 185 0 94 21 150 71 189 26 20 36 21 407 21 377 0 381 0 404
22 l23 21 0 1846 0 1845 -22 23 -21 23 -382 0 c-373 0 -383 1 -409 21 -59 47
-92 174 -67 265 14 52 50 105 81 121 20 10 152 12 600 11 l575 -3 48 -24z"/>
<path d="M5332 5378 c-18 -18 -15 -103 4 -119 27 -22 49 1 52 55 4 64 -24 96
-56 64z"/>
<path d="M5331 5096 c-8 -9 -11 -62 -9 -166 3 -130 6 -154 20 -163 12 -8 21
-7 32 2 13 11 16 39 16 165 0 151 -5 176 -36 176 -6 0 -17 -6 -23 -14z"/>
<path d="M5331 4606 c-8 -10 -10 -408 -9 -1496 3 -1371 4 -1484 20 -1493 12
-8 21 -7 32 2 14 12 16 155 16 1495 0 1139 -3 1485 -12 1494 -16 16 -33 15
-47 -2z"/>
</g>
</svg>
