<svg xmlns="http://www.w3.org/2000/svg"  viewBox="0 0 100 100" width="250" height="250">
<path fill="#7783ad" d="M67.307,82h-42c-1.1,0-2-0.9-2-2V16c0-1.1,0.9-2,2-2h42c4.95,0,9,4.05,9,9v50C76.307,77.95,72.257,82,67.307,82z"/>
<path fill="#ef5390" d="M28.307 82L28.307 89.5 31.307 87 34.307 89.5 34.307 82z"/>
<path fill="#6474a6" d="M23.307 14H30.307V82H23.307z"/>
<path fill="#fef6aa" d="M23.307 30H76.307V52H23.307z"/>
<path fill="#4a5398" d="M60.307 12H65.307V84H60.307z"/>
<path fill="#eddc67" d="M52.807 40h-25c-.276 0-.5-.224-.5-.5s.224-.5.5-.5h25c.276 0 .5.224.5.5S53.083 40 52.807 40zM52.807 36h-25c-.276 0-.5-.224-.5-.5s.224-.5.5-.5h25c.276 0 .5.224.5.5S53.083 36 52.807 36z"/>
<path fill="#1f212b" d="M67.307 83h-2c-.552 0-1-.448-1-1s.448-1 1-1h2c4.411 0 8-3.589 8-8V23c0-4.411-3.589-8-8-8h-2c-.552 0-1-.448-1-1s.448-1 1-1h2c5.514 0 10 4.486 10 10v50C77.307 78.514 72.821 83 67.307 83zM60.307 83h-35c-1.654 0-3-1.346-3-3V16c0-1.654 1.346-3 3-3h35c.552 0 1 .448 1 1s-.448 1-1 1h-35c-.551 0-1 .449-1 1v64c0 .551.449 1 1 1h35c.552 0 1 .448 1 1S60.859 83 60.307 83z"/>
<path fill="#1f212b" d="M29.807 73c-.276 0-.5-.224-.5-.5v-21c0-.276.224-.5.5-.5s.5.224.5.5v21C30.307 72.776 30.083 73 29.807 73zM29.807 30c-.276 0-.5-.224-.5-.5v-15c0-.276.224-.5.5-.5s.5.224.5.5v15C30.307 29.776 30.083 30 29.807 30z"/>
<path fill="#1f212b" d="M60.807 52h-37c-.276 0-.5-.224-.5-.5v-22c0-.276.224-.5.5-.5h37c.276 0 .5.224.5.5s-.224.5-.5.5h-36.5v21h36.5c.276 0 .5.224.5.5S61.083 52 60.807 52zM75.807 52h-10c-.276 0-.5-.224-.5-.5s.224-.5.5-.5h9.5V30h-9.5c-.276 0-.5-.224-.5-.5s.224-.5.5-.5h10c.276 0 .5.224.5.5v22C76.307 51.776 76.083 52 75.807 52z"/>
<path fill="#1f212b" d="M64.807,84h-4c-0.276,0-0.5-0.224-0.5-0.5v-71c0-0.276,0.224-0.5,0.5-0.5h4c0.276,0,0.5,0.224,0.5,0.5v71C65.307,83.776,65.083,84,64.807,84z M61.307,83h3V13h-3V83z"/>
<path fill="#1f212b" d="M62.807 81c-.276 0-.5-.224-.5-.5v-67c0-.276.224-.5.5-.5s.5.224.5.5v67C63.307 80.776 63.083 81 62.807 81zM33.807 90.5c-.115 0-.229-.04-.32-.116l-2.68-2.233-2.68 2.233c-.149.125-.357.152-.532.068-.176-.082-.288-.259-.288-.453v-7.5c0-.276.224-.5.5-.5h6c.276 0 .5.224.5.5V90c0 .194-.112.371-.288.453C33.952 90.484 33.879 90.5 33.807 90.5zM30.807 87c.114 0 .228.039.32.116l2.18 1.817V83h-5v5.933l2.18-1.817C30.58 87.039 30.693 87 30.807 87zM52.807 40h-25c-.276 0-.5-.224-.5-.5s.224-.5.5-.5h25c.276 0 .5.224.5.5S53.083 40 52.807 40zM52.807 36h-25c-.276 0-.5-.224-.5-.5s.224-.5.5-.5h25c.276 0 .5.224.5.5S53.083 36 52.807 36zM29.807 78c-.276 0-.5-.224-.5-.5v-3c0-.276.224-.5.5-.5s.5.224.5.5v3C30.307 77.776 30.083 78 29.807 78zM29.807 81c-.276 0-.5-.224-.5-.5v-1c0-.276.224-.5.5-.5s.5.224.5.5v1C30.307 80.776 30.083 81 29.807 81z"/>
</svg>
