<?xml version="1.0" encoding="iso-8859-1"?>
<!-- Generator: Adobe Illustrator 22.1.0, SVG Export Plug-In . SVG Version: 6.00 Build 0)  -->
<svg version="1.1" id="Layer_1" xmlns="http://www.w3.org/2000/svg" xmlns:xlink="http://www.w3.org/1999/xlink" x="0px" y="0px"
	 viewBox="0 0 100 100" style="enable-background:new 0 0 100 100;" xml:space="preserve">
<path style="fill:none;stroke:#000000;stroke-width:2;stroke-linejoin:round;stroke-miterlimit:10;" d="M19,80.984V19.016
	c0-0.918,0.416-1.651,1.25-2.198C21.082,16.273,22.045,16,23.137,16h14.846c0.918,0,1.651,0.402,2.198,1.206
	C40.727,18.012,41,18.93,41,19.965c0,1.15-0.288,2.126-0.861,2.93C39.563,23.7,38.846,24,37.984,24H28v52h9.984
	c0.862,0,1.579,0.301,2.155,1.105C40.712,77.91,41,78.887,41,80.035c0,1.034-0.273,1.954-0.819,2.758
	C39.635,83.598,38.902,84,37.984,84H23.137c-1.093,0-2.055-0.273-2.887-0.819C19.416,82.635,19,81.903,19,80.984z"/>
<line style="fill:none;stroke:#000000;stroke-linecap:round;stroke-linejoin:round;stroke-miterlimit:10;" x1="23.5" y1="23.5" x2="23.5" y2="24.5"/>
<line style="fill:none;stroke:#000000;stroke-linecap:round;stroke-linejoin:round;stroke-miterlimit:10;" x1="23.5" y1="27.5" x2="23.5" y2="31.5"/>
<line style="fill:none;stroke:#000000;stroke-linecap:round;stroke-linejoin:round;stroke-miterlimit:10;" x1="23.5" y1="34.5" x2="23.5" y2="76.5"/>
<path style="fill:none;stroke:#000000;stroke-width:2;stroke-linejoin:round;stroke-miterlimit:10;" d="M79.75,83.181
	C78.918,83.727,77.955,84,76.863,84H62.016c-0.918,0-1.651-0.402-2.198-1.206C59.273,81.99,59,81.07,59,80.035
	c0-1.149,0.288-2.125,0.861-2.93C60.437,76.301,61.154,76,62.016,76H72V24h-9.984c-0.862,0-1.579-0.3-2.155-1.105
	C59.288,22.091,59,21.114,59,19.965c0-1.034,0.273-1.953,0.819-2.758S61.098,16,62.016,16h14.846c1.093,0,2.055,0.273,2.887,0.819
	C80.583,17.366,81,18.099,81,19.017v61.968C81.001,81.903,80.584,82.635,79.75,83.181z"/>
<line style="fill:none;stroke:#000000;stroke-linecap:round;stroke-linejoin:round;stroke-miterlimit:10;" x1="76.5" y1="23.5" x2="76.5" y2="24.5"/>
<line style="fill:none;stroke:#000000;stroke-linecap:round;stroke-linejoin:round;stroke-miterlimit:10;" x1="76.5" y1="27.5" x2="76.5" y2="31.5"/>
<line style="fill:none;stroke:#000000;stroke-linecap:round;stroke-linejoin:round;stroke-miterlimit:10;" x1="76.5" y1="34.5" x2="76.5" y2="76.5"/>
</svg>
