<svg xmlns="http://www.w3.org/2000/svg" xmlns:xlink="http://www.w3.org/1999/xlink" viewBox="0,0,256,256" width="100px" height="100px" fill-rule="nonzero"><g fill="#ffffff" fill-rule="nonzero" stroke="none" stroke-width="1" stroke-linecap="butt" stroke-linejoin="miter" stroke-miterlimit="10" stroke-dasharray="" stroke-dashoffset="0" font-family="none" font-weight="none" font-size="none" text-anchor="none" style="mix-blend-mode: normal"><g transform="scale(2.56,2.56)"><path d="M23.13672,15c-1.25867,0 -2.43572,0.32749 -3.43555,0.98242c-1.04906,0.68805 -1.70117,1.8131 -1.70117,3.0332v61.96875c0,1.22078 0.65394,2.34633 1.70313,3.0332c0.99946,0.65545 2.17471,0.98242 3.43359,0.98242h14.84766c1.20994,0 2.33087,-0.62539 3.02344,-1.64648c0.65749,-0.96883 0.99219,-2.10896 0.99219,-3.31836c0,-1.31525 -0.34401,-2.52232 -1.04687,-3.50977c-0.00065,-0.00065 -0.0013,-0.0013 -0.00195,-0.00195c-0.73595,-1.02728 -1.87201,-1.52344 -2.9668,-1.52344h-8.98437v-50h8.98438c1.09402,0 2.23264,-0.49467 2.96875,-1.52344c0,-0.00065 0,-0.0013 0,-0.00195c0.70308,-0.98647 1.04688,-2.19281 1.04688,-3.50977c0,-1.21085 -0.3333,-2.35055 -0.99023,-3.32031c-0.00065,-0.00065 -0.0013,-0.0013 -0.00195,-0.00195c-0.69346,-1.01929 -1.81545,-1.64258 -3.02539,-1.64258zM62.01563,15c-1.20994,0 -2.33087,0.62539 -3.02344,1.64648c-0.65754,0.96945 -0.99219,2.10834 -0.99219,3.31836c0,1.3161 0.34357,2.52293 1.04688,3.50977c0,0.00065 0,0.0013 0,0.00195c0.73611,1.02872 1.87473,1.52344 2.96875,1.52344h8.98438v50h-8.98437c-1.09479,0 -2.2308,0.49612 -2.9668,1.52344c-0.00065,0.00065 -0.0013,0.0013 -0.00195,0.00195c-0.70259,0.98708 -1.04687,2.19366 -1.04687,3.50977c0,1.21085 0.33346,2.35142 0.99023,3.32031c0,0.00065 0,0.0013 0,0.00195c0.69351,1.01929 1.81545,1.64258 3.02539,1.64258h14.84766c1.25804,0 2.43383,-0.32677 3.43359,-0.98242c1.04888,-0.68667 1.70446,-1.81179 1.70313,-3.0332v-61.9668c0,-1.22083 -0.65437,-2.3473 -1.70312,-3.03516c-0.99978,-0.65611 -2.17603,-0.98242 -3.43555,-0.98242zM23.13672,17h14.8457c0.62606,0 0.9706,0.17892 1.37109,0.76758c0.43507,0.64224 0.64648,1.33811 0.64648,2.19727c0,0.98229 -0.23352,1.72646 -0.67578,2.34766v0.00195c-0.41475,0.57852 -0.71096,0.68555 -1.33984,0.68555h-9.98437c-0.55226,0.00006 -0.99994,0.44774 -1,1v52c0.00006,0.55226 0.44774,0.99994 1,1h9.98438c0.62848,0 0.92459,0.10858 1.33984,0.6875c0.44247,0.62226 0.67578,1.36766 0.67578,2.34766c0,0.85798 -0.21263,1.55646 -0.64648,2.19531c0,0.00065 0,0.0013 0,0.00195c-0.39943,0.58886 -0.74308,0.76758 -1.36914,0.76758h-14.84766c-0.92649,0 -1.67367,-0.2184 -2.33789,-0.6543c-0.00065,-0.00065 -0.0013,-0.0013 -0.00195,-0.00195c-0.61877,-0.40508 -0.79687,-0.74215 -0.79687,-1.35937v-61.96875c0,-0.61589 0.17989,-0.95538 0.79883,-1.36133c0.66418,-0.43507 1.41256,-0.6543 2.33789,-0.6543zM62.01563,17h14.8457c0.92649,0 1.67562,0.2184 2.33984,0.6543c0.61924,0.40615 0.79883,0.74811 0.79883,1.36328v61.9668c0,0.00065 0,0.0013 0,0.00195c0.00067,0.61459 -0.17775,0.9521 -0.79687,1.35742c-0.00065,0.00065 -0.0013,0.0013 -0.00195,0.00195c-0.66387,0.4356 -1.41256,0.6543 -2.33789,0.6543h-14.84766c-0.62538,0 -0.9692,-0.18044 -1.36914,-0.76758c-0.43323,-0.63911 -0.64648,-1.33811 -0.64648,-2.19727c0,-0.98114 0.23309,-1.72508 0.67578,-2.34766v-0.00195c0.41487,-0.57797 0.71173,-0.68555 1.33984,-0.68555h9.98438c0.55226,-0.00006 0.99994,-0.44774 1,-1v-52c-0.00006,-0.55226 -0.44774,-0.99994 -1,-1h-9.98437c-0.62888,0 -0.9251,-0.10698 -1.33984,-0.68555v-0.00195c-0.44203,-0.62083 -0.67578,-1.36651 -0.67578,-2.34766c0,-0.85798 0.21202,-1.55672 0.64648,-2.19727c0.39943,-0.58891 0.74308,-0.76758 1.36914,-0.76758zM23.49219,22.99219c-0.13261,0.00207 -0.25896,0.05673 -0.35127,0.15197c-0.0923,0.09523 -0.14299,0.22324 -0.14092,0.35584v1c-0.00255,0.18032 0.09219,0.34804 0.24794,0.43894c0.15575,0.0909 0.34838,0.0909 0.50413,0c0.15575,-0.0909 0.25049,-0.25863 0.24794,-0.43894v-1c0.00212,-0.13532 -0.0507,-0.26572 -0.1464,-0.36141c-0.0957,-0.0957 -0.22609,-0.14852 -0.36141,-0.1464zM76.49219,22.99219c-0.13261,0.00207 -0.25896,0.05673 -0.35127,0.15197c-0.0923,0.09523 -0.14299,0.22324 -0.14092,0.35584v1c-0.00255,0.18032 0.09219,0.34804 0.24794,0.43894c0.15575,0.0909 0.34838,0.0909 0.50413,0c0.15575,-0.0909 0.25049,-0.25863 0.24794,-0.43894v-1c0.00212,-0.13532 -0.0507,-0.26572 -0.1464,-0.36141c-0.0957,-0.0957 -0.22609,-0.14852 -0.36141,-0.1464zM23.49219,26.99219c-0.13261,0.00207 -0.25896,0.05673 -0.35127,0.15197c-0.0923,0.09523 -0.14299,0.22324 -0.14092,0.35584v4c-0.00255,0.18032 0.09219,0.34804 0.24794,0.43894c0.15575,0.0909 0.34838,0.0909 0.50413,0c0.15575,-0.0909 0.25049,-0.25863 0.24794,-0.43894v-4c0.00212,-0.13532 -0.0507,-0.26572 -0.1464,-0.36141c-0.0957,-0.0957 -0.22609,-0.14852 -0.36141,-0.1464zM76.49219,26.99219c-0.13261,0.00207 -0.25896,0.05673 -0.35127,0.15197c-0.0923,0.09523 -0.14299,0.22324 -0.14092,0.35584v4c-0.00255,0.18032 0.09219,0.34804 0.24794,0.43894c0.15575,0.0909 0.34838,0.0909 0.50413,0c0.15575,-0.0909 0.25049,-0.25863 0.24794,-0.43894v-4c0.00212,-0.13532 -0.0507,-0.26572 -0.1464,-0.36141c-0.0957,-0.0957 -0.22609,-0.14852 -0.36141,-0.1464zM23.49219,33.99219c-0.13261,0.00207 -0.25896,0.05673 -0.35127,0.15197c-0.0923,0.09523 -0.14299,0.22324 -0.14092,0.35584v42c-0.00255,0.18032 0.09219,0.34804 0.24794,0.43894c0.15575,0.0909 0.34838,0.0909 0.50413,0c0.15575,-0.0909 0.25049,-0.25863 0.24794,-0.43894v-42c0.00212,-0.13532 -0.0507,-0.26572 -0.1464,-0.36141c-0.0957,-0.0957 -0.22609,-0.14852 -0.36141,-0.1464zM76.49219,33.99219c-0.13261,0.00207 -0.25896,0.05673 -0.35127,0.15197c-0.0923,0.09523 -0.14299,0.22324 -0.14092,0.35584v42c-0.00255,0.18032 0.09219,0.34804 0.24794,0.43894c0.15575,0.0909 0.34838,0.0909 0.50413,0c0.15575,-0.0909 0.25049,-0.25863 0.24794,-0.43894v-42c0.00212,-0.13532 -0.0507,-0.26572 -0.1464,-0.36141c-0.0957,-0.0957 -0.22609,-0.14852 -0.36141,-0.1464z"></path></g></g></svg>
